<svg width="509" height="122" viewBox="0 0 509 122" fill="none" xmlns="http://www.w3.org/2000/svg">
<rect width="122" height="122" rx="30.9841" fill="#0E0E0E"/>
<rect width="85.5162" height="85.5162" transform="translate(17.8936 17.8933)" fill="#0E0E0E"/>
<path d="M28.5828 49.9619C28.5828 46.0261 31.7733 42.8355 35.7091 42.8355H41.0539C43.2969 42.8355 45.4091 41.7794 46.755 39.985L50.4963 34.9965C51.8421 33.2021 53.9543 32.146 56.1974 32.146H65.1053C67.3483 32.146 69.4606 33.2021 70.8064 34.9965L74.5477 39.985C75.8935 41.7794 78.0058 42.8355 80.2488 42.8355H85.5936C89.5294 42.8355 92.7199 46.0261 92.7199 49.9619V82.0304C92.7199 85.9663 89.5294 89.1568 85.5936 89.1568H35.7091C31.7733 89.1568 28.5828 85.9663 28.5828 82.0304V49.9619Z" stroke="white" stroke-width="7.12635" stroke-linecap="round" stroke-linejoin="round"/>
<path d="M60.6516 78.4672C68.5232 78.4672 74.9043 72.0861 74.9043 64.2145C74.9043 56.343 68.5232 49.9618 60.6516 49.9618C52.7801 49.9618 46.3989 56.343 46.3989 64.2145C46.3989 72.0861 52.7801 78.4672 60.6516 78.4672Z" stroke="white" stroke-width="7.12635" stroke-linecap="round" stroke-linejoin="round"/>
<path d="M169.687 90.3459C159.988 90.3459 151.614 87.188 144.565 80.8722L152.263 71.6522C158.071 76.4455 163.964 78.8421 169.941 78.8421C172.592 78.8421 174.678 78.3346 176.201 77.3195C177.723 76.3045 178.484 74.8947 178.484 73.0902C178.484 71.3985 177.695 70.0451 176.116 69.03C174.537 67.9586 171.351 66.8026 166.558 65.562C163.174 64.7161 160.439 63.8984 158.353 63.109C156.266 62.2631 154.264 61.1635 152.347 59.8101C150.486 58.4567 149.105 56.765 148.202 54.7349C147.357 52.6484 146.934 50.1672 146.934 47.2913C146.934 41.9341 148.851 37.6202 152.685 34.3495C156.576 31.0788 161.567 29.4435 167.657 29.4435C176.06 29.4435 183.39 31.9529 189.65 36.9717L182.883 46.7837C177.3 42.8927 172.169 40.9473 167.488 40.9473C165.063 40.9473 163.174 41.4548 161.821 42.4698C160.524 43.4285 159.875 44.6973 159.875 46.2762C159.875 48.1935 160.693 49.6315 162.328 50.5901C163.964 51.5488 167.404 52.7048 172.648 54.0582C179.077 55.7499 183.813 57.921 186.858 60.5714C189.904 63.2217 191.426 67.0281 191.426 71.9906C191.426 77.7425 189.424 82.2537 185.421 85.5244C181.473 88.7387 176.229 90.3459 169.687 90.3459ZM201.378 89.5V44.1615H214.235V50.5901C218.013 45.7405 222.44 43.3157 227.515 43.3157C232.365 43.3157 236.143 44.81 238.85 47.7988C241.556 50.7875 242.91 54.9041 242.91 60.1484V89.5H230.053V64.2086C230.053 61.2199 229.376 58.936 228.022 57.3571C226.669 55.7781 224.752 54.9886 222.271 54.9886C219.789 54.9886 217.816 55.7781 216.349 57.3571C214.94 58.936 214.235 61.2199 214.235 64.2086V89.5H201.378ZM266.936 90.3459C262.481 90.3459 258.76 89.1053 255.771 86.6241C252.838 84.1428 251.372 80.703 251.372 76.3045C251.372 71.5112 253.008 67.9022 256.278 65.4774C259.605 63.0526 264.06 61.8402 269.643 61.8402C273.421 61.8402 277.115 62.4605 280.724 63.7011V62.9398C280.724 57.4135 277.481 54.6503 270.996 54.6503C267.105 54.6503 262.933 55.468 258.478 57.1033L255.263 47.2913C260.79 44.8664 266.654 43.654 272.857 43.654C279.681 43.654 284.784 45.3458 288.168 48.7292C291.438 51.9999 293.074 56.8213 293.074 63.1935V89.5H280.639V84.594C277.199 88.4286 272.632 90.3459 266.936 90.3459ZM270.827 81.4643C273.816 81.4643 276.241 80.7312 278.102 79.265C279.963 77.7425 280.893 75.8252 280.893 73.5131V71.2293C278.468 70.1015 275.733 69.5375 272.688 69.5375C269.869 69.5375 267.669 70.1015 266.09 71.2293C264.568 72.3007 263.807 73.8797 263.807 75.9661C263.807 77.6579 264.455 79.0113 265.752 80.0263C267.049 80.9849 268.741 81.4643 270.827 81.4643ZM304.137 103.034V44.1615H316.994V50.6747C320.603 45.7687 325.312 43.3157 331.12 43.3157C336.759 43.3157 341.609 45.4303 345.669 49.6597C349.729 53.889 351.76 59.6409 351.76 66.9154C351.76 74.1334 349.729 79.8571 345.669 84.0865C341.666 88.2594 336.816 90.3459 331.12 90.3459C325.481 90.3459 320.773 88.0902 316.994 83.5789V103.034H304.137ZM319.955 75.9661C322.098 78.2782 324.72 79.4342 327.822 79.4342C330.923 79.4342 333.545 78.2782 335.688 75.9661C337.831 73.5977 338.902 70.5244 338.902 66.7462C338.902 63.0808 337.831 60.092 335.688 57.78C333.545 55.4116 330.923 54.2274 327.822 54.2274C324.72 54.2274 322.098 55.4116 319.955 57.78C317.868 60.092 316.825 63.1372 316.825 66.9154C316.825 70.5808 317.868 73.5977 319.955 75.9661ZM376.019 90.3459C368.068 90.3459 361.611 87.3853 356.649 81.4643L364.854 72.3289C368.463 76.2763 372.072 78.25 375.681 78.25C380.982 78.25 383.632 74.9793 383.632 68.4379V30.2893H396.997V69.03C396.997 75.8533 395.136 81.1259 391.414 84.8477C387.749 88.5132 382.617 90.3459 376.019 90.3459ZM448.718 83.6635C444.037 88.2312 438.201 90.515 431.208 90.515C424.216 90.515 418.379 88.2594 413.699 83.7481C409.075 79.1804 406.763 73.5695 406.763 66.9154C406.763 60.3176 409.103 54.7349 413.783 50.1672C418.52 45.5995 424.385 43.3157 431.377 43.3157C438.37 43.3157 444.178 45.5995 448.802 50.1672C453.483 54.6785 455.823 60.2612 455.823 66.9154C455.823 73.5131 453.455 79.0958 448.718 83.6635ZM431.377 79.4342C434.93 79.4342 437.778 78.25 439.921 75.8815C442.064 73.4567 443.135 70.468 443.135 66.9154C443.135 63.4755 442.007 60.5432 439.751 58.1183C437.552 55.6371 434.704 54.3965 431.208 54.3965C427.656 54.3965 424.808 55.6089 422.665 58.0338C420.522 60.4022 419.451 63.3627 419.451 66.9154C419.451 70.3552 420.55 73.3157 422.75 75.797C425.005 78.2218 427.881 79.4342 431.377 79.4342ZM473.399 103.288C469.339 103.288 465.533 102.244 461.98 100.158L466.294 90.8534C468.268 92.0376 470.1 92.6297 471.792 92.6297C473.822 92.6297 475.316 91.6429 476.275 89.6692L458.512 44.1615H472.13L482.45 75.0357L492.347 44.1615H505.711L488.286 90.5996C486.538 95.2801 484.565 98.5508 482.365 100.412C480.166 102.329 477.177 103.288 473.399 103.288Z" fill="#0E0E0E"/>
</svg>
