<svg width="52" height="52" viewBox="0 0 52 52" fill="none" xmlns="http://www.w3.org/2000/svg">
<rect width="52" height="52" rx="13.2063" fill="white"/>
<path d="M12.1829 21.2953C12.1829 19.6178 13.5428 18.2579 15.2203 18.2579H17.4984C18.4545 18.2579 19.3547 17.8077 19.9284 17.0429L21.5231 14.9166C22.0967 14.1518 22.997 13.7017 23.953 13.7017H27.7498C28.7059 13.7017 29.6062 14.1518 30.1798 14.9166L31.7745 17.0429C32.3481 17.8077 33.2484 18.2579 34.2044 18.2579H36.4825C38.1601 18.2579 39.52 19.6178 39.52 21.2953V34.9639C39.52 36.6415 38.1601 38.0013 36.4825 38.0013H15.2203C13.5428 38.0013 12.1829 36.6415 12.1829 34.9639V21.2953Z" stroke="#222222" stroke-width="3.03746" stroke-linecap="round" stroke-linejoin="round"/>
<path d="M25.8515 33.445C29.2066 33.445 31.9265 30.7252 31.9265 27.3701C31.9265 24.015 29.2066 21.2952 25.8515 21.2952C22.4964 21.2952 19.7766 24.015 19.7766 27.3701C19.7766 30.7252 22.4964 33.445 25.8515 33.445Z" stroke="#222222" stroke-width="3.03746" stroke-linecap="round" stroke-linejoin="round"/>
</svg>
